<?xml version="1.0" encoding="UTF-8" standalone="no"?>
<svg
   class="icon"
   height="32"
   viewBox="0 0 1024 1024"
   version="1.1"
   width="32">
  <title
     id="title847">draw polygon</title>
  <g
     id="g927">
    <g
       id="g1908">
      <path
         id="path863"
         d="m 3.2773438,8.5253906 a 2.1027479,2.1027479 0 0 0 -2.0917969,2.1035154 2.1027479,2.1027479 0 0 0 2.1015625,2.101563 2.1027479,2.1027479 0 0 0 0.4375,-0.04687 l 5.6679687,9.371094 a 2.1027479,2.1027479 0 0 0 -0.484375,1.34375 2.1027479,2.1027479 0 0 0 2.1035159,2.101562 2.1027479,2.1027479 0 0 0 2.101562,-2.101562 2.1027479,2.1027479 0 0 0 -0.0078,-0.173829 l 12.960937,-5.734375 a 2.1027479,2.1027479 0 0 0 1.53711,0.669922 2.1027479,2.1027479 0 0 0 2.103515,-2.103515 2.1027479,2.1027479 0 0 0 -2.103515,-2.101563 2.1027479,2.1027479 0 0 0 -2.103516,2.101563 2.1027479,2.1027479 0 0 0 0.0078,0.171875 l -12.958984,5.734375 a 2.1027479,2.1027479 0 0 0 -1.537109,-0.667969 2.1027479,2.1027479 0 0 0 -0.4375,0.04687 L 4.90625,11.970703 a 2.1027479,2.1027479 0 0 0 0.484375,-1.341797 2.1027479,2.1027479 0 0 0 -2.1035156,-2.1035154 2.1027479,2.1027479 0 0 0 -0.00977,0 z"
         transform="scale(32)" />
    </g>
  </g>
</svg>
